<svg width="676" height="34" viewBox="0 0 676 34" fill="none" xmlns="http://www.w3.org/2000/svg">
<circle cx="225.809" cy="15.4332" r="4.00926" fill="black"/>
<circle cx="254.676" cy="15.4332" r="4.00926" fill="black"/>
<circle cx="283.543" cy="15.4332" r="4.00926" fill="black"/>
<circle cx="312.409" cy="15.4332" r="4.00926" fill="black"/>
<circle cx="370.143" cy="15.4332" r="4.00926" fill="black"/>
<circle cx="399.009" cy="15.4332" r="4.00926" fill="black"/>
<circle cx="427.876" cy="15.4332" r="4.00926" fill="black"/>
<circle cx="456.743" cy="15.4332" r="4.00926" fill="black"/>
<circle cx="485.609" cy="15.4332" r="4.00926" fill="black"/>
<circle cx="514.476" cy="15.4332" r="4.00926" fill="black"/>
<circle cx="543.343" cy="15.4332" r="4.00926" fill="black"/>
<circle cx="572.209" cy="15.4332" r="4.00926" fill="black"/>
<circle cx="601.076" cy="15.4332" r="4.00926" fill="black"/>
<circle cx="52.7426" cy="15.0093" r="4.00926" fill="black"/>
<circle cx="81.6092" cy="15.0093" r="4.00926" fill="black"/>
<circle cx="110.476" cy="15.0093" r="4.00926" fill="black"/>
<circle cx="139.343" cy="15.0093" r="4.00926" fill="black"/>
<circle cx="168.209" cy="15.0093" r="4.00926" fill="black"/>
<circle cx="197.076" cy="15.0093" r="4.00926" fill="black"/>
<circle cx="661.433" cy="14.4333" r="14.4333" fill="#54DC3D"/>
<path d="M657.141 12.9299L654.618 15.0501L660.475 22.8528H664.068L666.645 6.06015L663.533 5.21204L661.256 18.5973L657.141 12.9299Z" fill="white" stroke="black"/>
<circle cx="625.009" cy="15.0093" r="4.00926" fill="black"/>
<circle cx="342.433" cy="14.4333" r="14.4333" fill="#1D9809"/>
<path d="M345.716 10.0909H347.42C347.342 7.89631 345.318 6.25568 342.506 6.25568C339.722 6.25568 337.534 7.875 337.534 10.3182C337.534 12.2784 338.955 13.4432 341.227 14.0966L343.017 14.608C344.551 15.0341 345.915 15.5739 345.915 17.0227C345.915 18.6136 344.381 19.6648 342.364 19.6648C340.631 19.6648 339.097 18.8977 338.955 17.25H337.136C337.307 19.6364 339.239 21.2557 342.364 21.2557C345.716 21.2557 347.619 19.4091 347.619 17.0511C347.619 14.3239 345.034 13.4432 343.528 13.0455L342.051 12.6477C340.972 12.3636 339.239 11.7955 339.239 10.233C339.239 8.84091 340.517 7.81818 342.449 7.81818C344.21 7.81818 345.545 8.65625 345.716 10.0909Z" fill="white"/>
<path d="M345.716 10.0909L344.723 10.2089L344.828 11.0909H345.716V10.0909ZM347.42 10.0909V11.0909H348.457L348.42 10.0553L347.42 10.0909ZM341.227 14.0966L340.951 15.0577L340.953 15.0581L341.227 14.0966ZM343.017 14.608L342.742 15.5695L342.749 15.5715L343.017 14.608ZM338.955 17.25L339.951 17.1641L339.872 16.25H338.955V17.25ZM337.136 17.25V16.25H336.062L336.139 17.3212L337.136 17.25ZM343.528 13.0455L343.268 14.0111L343.273 14.0123L343.528 13.0455ZM342.051 12.6477L342.311 11.6821L342.306 11.6807L342.051 12.6477ZM345.716 11.0909H347.42V9.09091H345.716V11.0909ZM348.42 10.0553C348.316 7.14815 345.663 5.25568 342.506 5.25568V7.25568C344.973 7.25568 346.368 8.64446 346.421 10.1265L348.42 10.0553ZM342.506 5.25568C339.397 5.25568 336.534 7.11956 336.534 10.3182H338.534C338.534 8.63044 340.046 7.25568 342.506 7.25568V5.25568ZM336.534 10.3182C336.534 11.5728 337.002 12.6125 337.833 13.4164C338.636 14.1919 339.732 14.7072 340.951 15.0577L341.504 13.1355C340.45 12.8326 339.7 12.4388 339.223 11.9785C338.777 11.5466 338.534 11.0238 338.534 10.3182H336.534ZM340.953 15.0581L342.742 15.5695L343.292 13.6464L341.502 13.1351L340.953 15.0581ZM342.749 15.5715C343.516 15.7845 344.092 15.9903 344.471 16.2536C344.792 16.4759 344.915 16.6903 344.915 17.0227H346.915C346.915 15.9063 346.356 15.1264 345.611 14.61C344.925 14.1347 344.052 13.8575 343.285 13.6444L342.749 15.5715ZM344.915 17.0227C344.915 17.4587 344.718 17.8334 344.308 18.1312C343.879 18.443 343.21 18.6648 342.364 18.6648V20.6648C343.535 20.6648 344.641 20.361 345.483 19.7495C346.344 19.124 346.915 18.1776 346.915 17.0227H344.915ZM342.364 18.6648C341.629 18.6648 341.016 18.4999 340.604 18.2344C340.222 17.9889 339.993 17.6522 339.951 17.1641L337.958 17.3359C338.058 18.4956 338.667 19.3662 339.521 19.9161C340.345 20.4461 341.365 20.6648 342.364 20.6648V18.6648ZM338.955 16.25H337.136V18.25H338.955V16.25ZM336.139 17.3212C336.243 18.7842 336.899 20.0498 338.024 20.934C339.136 21.8072 340.634 22.2557 342.364 22.2557V20.2557C340.968 20.2557 339.938 19.8945 339.26 19.3614C338.596 18.8394 338.2 18.1022 338.134 17.1788L336.139 17.3212ZM342.364 22.2557C344.219 22.2557 345.779 21.7436 346.894 20.8014C348.02 19.8497 348.619 18.5162 348.619 17.0511H346.619C346.619 17.944 346.267 18.7128 345.603 19.2739C344.928 19.8444 343.861 20.2557 342.364 20.2557V22.2557ZM348.619 17.0511C348.619 15.3067 347.767 14.1271 346.729 13.3678C345.735 12.6398 344.557 12.2827 343.784 12.0786L343.273 14.0123C344.006 14.2059 344.873 14.488 345.548 14.9817C346.179 15.4439 346.619 16.0683 346.619 17.0511H348.619ZM343.788 12.0798L342.311 11.6821L341.791 13.6133L343.268 14.0111L343.788 12.0798ZM342.306 11.6807C341.776 11.5413 341.211 11.3606 340.789 11.0837C340.395 10.8254 340.239 10.5667 340.239 10.233H338.239C338.239 11.4617 338.949 12.2683 339.691 12.7558C340.406 13.2246 341.247 13.4701 341.797 13.6148L342.306 11.6807ZM340.239 10.233C340.239 9.87232 340.394 9.55313 340.727 9.29748C341.077 9.02977 341.651 8.81818 342.449 8.81818V6.81818C341.315 6.81818 340.284 7.11796 339.511 7.70962C338.723 8.31334 338.239 9.20155 338.239 10.233H340.239ZM342.449 8.81818C343.956 8.81818 344.638 9.4929 344.723 10.2089L346.709 9.97293C346.453 7.8196 344.465 6.81818 342.449 6.81818V8.81818Z" fill="black"/>
<path d="M342 24V4" stroke="white"/>
<circle cx="14.4333" cy="14.4333" r="14.4333" fill="#0F9FA8"/>
<path d="M12.5714 7C14.0491 7 15.4662 7.58699 16.511 8.63183C17.5559 9.67668 18.1429 11.0938 18.1429 12.5714C18.1429 13.9514 17.6371 15.22 16.8057 16.1971L17.0371 16.4286H17.7143L22 20.7143L20.7143 22L16.4286 17.7143V17.0371L16.1971 16.8057C15.1862 17.6687 13.9006 18.1428 12.5714 18.1429C11.0938 18.1429 9.67668 17.5559 8.63183 16.511C7.58699 15.4662 7 14.0491 7 12.5714C7 11.0938 7.58699 9.67668 8.63183 8.63183C9.67668 7.58699 11.0938 7 12.5714 7ZM12.5714 8.71429C10.4286 8.71429 8.71429 10.4286 8.71429 12.5714C8.71429 14.7143 10.4286 16.4286 12.5714 16.4286C14.7143 16.4286 16.4286 14.7143 16.4286 12.5714C16.4286 10.4286 14.7143 8.71429 12.5714 8.71429Z" fill="#D4D4D4"/>
</svg>
